Coordinates
version=1
nRows=19
nColumns=24
inDegrees=yes

Units are S.I. units (second, meters, Newtons, ...)
Angles are in degrees.

endheader
time	pelvis_tilt	pelvis_list	pelvis_rotation	pelvis_tx	pelvis_ty	pelvis_tz	hip_flexion_r	hip_adduction_r	hip_rotation_r	knee_angle_r	ankle_angle_r	subtalar_angle_r	mtp_angle_r	hip_flexion_l	hip_adduction_l	hip_rotation_l	knee_angle_l	ankle_angle_l	subtalar_angle_l	mtp_angle_l	lumbar_extension	lumbar_bending	lumbar_rotation
      1.61300000	      0.63522730	      3.78275441	     -0.53209980	      0.43006711	      1.00270583	      0.30682706	     15.57372935	     -4.27423542	      1.77597517	    -64.36034498	     -0.32439614	    -17.80402801	     -1.19776222	      7.08594903	      9.44544374	      0.47336041	    -12.57690100	      1.99543199	    -13.36601639	      1.68543541	      0.58746800	     -1.96514586	      3.68603126
      1.61716667	      0.72812716	      3.68892202	     -0.37897720	      0.43463067	      1.00331140	      0.30637231	     16.03853188	     -4.18252649	      1.71065343	    -64.00508476	      0.20503996	    -17.94067741	     -1.34857195	      6.52632112	      9.38501919	      0.69099005	    -12.28067924	      2.05284402	    -13.36781005	      1.62411260	      0.45006056	     -1.85376513	      3.50420766
      1.62133333	      0.84114047	      3.59691891	     -0.22550692	      0.43919189	      1.00391838	      0.30592245	     16.46748464	     -4.09372008	      1.64602688	    -63.60564650	      0.71633637	    -18.03438748	     -1.48872454	      5.94525399	      9.32152645	      0.89965626	    -11.98374956	      2.11607097	    -13.34858608	      1.56590172	      0.28845182	     -1.74384253	      3.33207431
      1.62550000	      0.94451079	      3.49959806	     -0.06485850	      0.44373753	      1.00448457	      0.30547236	     16.89432914	     -4.00105632	      1.57705672	    -63.16266838	      1.20351910	    -18.09444449	     -1.63340014	      5.38317777	      9.24659865	      1.10495655	    -11.70184518	      2.18967610	    -13.31483527	      1.50593447	      0.13802305	     -1.62766182	      3.14544816
      1.62966667	      0.99749447	      3.39998597	      0.10480914	      0.44825812	      1.00494648	      0.30502867	     17.36785057	     -3.90471471	      1.50575429	    -62.68718491	      1.67272997	    -18.14054262	     -1.68950824	      4.89707306	      9.16230576	      1.28856256	    -11.45896743	      2.27197383	    -13.23195775	      1.48307655	      0.04796451	     -1.50342233	      3.05437830
      1.63383333	      1.12850688	      3.33081184	      0.24385468	      0.45277652	      1.00548227	      0.30461300	     17.75045820	     -3.83793009	      1.46963940	    -62.17797780	      2.12250864	    -18.12907201	     -1.81429498	      4.30107816	      9.10885576	      1.47771903	    -11.16065547	      2.37277751	    -13.19218401	      1.43063592	     -0.14988208	     -1.41998878	      2.79991185
      1.63800000	      1.18287000	      3.22909033	      0.42179994	      0.45727887	      1.00589668	      0.30416868	     18.19389337	     -3.74224461	      1.39395207	    -61.61881777	      2.54622153	    -18.13358805	     -1.87432029	      3.81963892	      9.01443007	      1.66240365	    -10.92485673	      2.46298867	    -13.10206861	      1.40648536	     -0.23944640	     -1.29010277	      2.69306481
      1.64216667	      1.27118255	      3.15205042	      0.58134786	      0.46177116	      1.00630785	      0.30375193	     18.59616537	     -3.67043964	      1.34054698	    -61.03596095	      2.96356839	    -18.10527506	     -1.94111273	      3.29375611	      8.94217713	      1.83607715	    -10.67015076	      2.57810230	    -13.01247389	      1.37990175	     -0.37825848	     -1.19412305	      2.52399563
      1.64633333	      1.35328737	      3.07825866	      0.73757335	      0.46625844	      1.00669735	      0.30335459	     18.99152064	     -3.60017962	      1.29338617	    -60.41188971	      3.33198257	    -18.04868301	     -2.01111965	      2.77636313	      8.86861897	      2.00182030	    -10.41602444	      2.68889447	    -12.92307452	      1.35216587	     -0.50937661	     -1.10423470	      2.34385663
      1.65050000	      1.47318755	      3.02186479	      0.87883286	      0.47075347	      1.00710999	      0.30296900	     19.33158091	     -3.54757010	      1.26187365	    -59.74871708	      3.65160891	    -17.94728052	     -2.13605848	      2.20829698	      8.81053037	      2.15603389	    -10.14008146	      2.80964846	    -12.84449062	      1.30332882	     -0.67818884	     -1.04240201	      2.08163750
      1.65466667	      1.53355899	      2.95575429	      1.04136070	      0.47520899	      1.00740224	      0.30256779	     19.72634171	     -3.48731688	      1.21699571	    -59.05986772	      3.96628926	    -17.85618622	     -2.29775824	      1.72588925	      8.74032254	      2.32829325	     -9.90276683	      2.91977106	    -12.75327750	      1.24274449	     -0.78869513	     -0.96404977	      1.87264850
      1.65883333	      1.58518562	      2.88809810	      1.20563021	      0.47966574	      1.00766626	      0.30217857	     20.11481192	     -3.42570465	      1.16644856	    -58.33579885	      4.25804284	    -17.81596962	     -2.36928361	      1.26320378	      8.66331701	      2.48084218	     -9.68465298	      3.04052258	    -12.65177620	      1.21904488	     -0.87786185	     -0.87834895	      1.77765498
      1.66300000	      1.65558397	      2.82284170	      1.36244034	      0.48411294	      1.00793032	      0.30180635	     20.46863768	     -3.36434030	      1.12318439	    -57.57441981	      4.51083827	    -17.74636900	     -2.44565934	      0.77519569	      8.58541692	      2.63014060	     -9.45279061	      3.16945659	    -12.54374484	      1.19539867	     -0.99437374	     -0.80072568	      1.61900271
      1.66716667	      1.71020460	      2.77086900	      1.51112234	      0.48855333	      1.00813452	      0.30143397	     20.83185320	     -3.31849006	      1.08899938	    -56.79269309	      4.72985357	    -17.67503137	     -2.52612663	      0.30720120	      8.52151301	      2.77574119	     -9.22497365	      3.29636854	    -12.44359791	      1.17226840	     -1.09423416	     -0.73210299	      1.45111725
      1.67133333	      1.75467738	      2.72161455	      1.65919032	      0.49298880	      1.00829962	      0.30107476	     21.19495084	     -3.27740505	      1.04872739	    -55.98566342	      4.91765737	    -17.61825446	     -2.60415027	     -0.14855982	      8.45724028	      2.91710218	     -8.99671841	      3.42101911	    -12.34627688	      1.15164182	     -1.19186413	     -0.66779775	      1.28966470
      1.67550000	      1.80875770	      2.67463624	      1.80481109	      0.49741165	      1.00844866	      0.30072372	     21.53043344	     -3.23437605	      1.01722804	    -55.14340837	      5.07814421	    -17.57306610	     -2.68481344	     -0.60872303	      8.39369438	      3.05825112	     -8.77949205	      3.54935285	    -12.25408398	      1.13221317	     -1.28663936	     -0.60675532	      1.12837469
      1.67966667	      1.86051775	      2.62782791	      1.94746939	      0.50183307	      1.00858550	      0.30037865	     21.85366365	     -3.19406084	      0.98056647	    -54.27226878	      5.20861580	    -17.54393045	     -2.76438907	     -1.06936576	      8.32780616	      3.20016366	     -8.55316014	      3.67163744	    -12.16442075	      1.11459290	     -1.38616196	     -0.54516203	      0.97324820
      1.68383333	      1.84826602	      2.62299312	      2.05497711	      0.50623709	      1.00856298	      0.30007841	     22.25902555	     -3.18598924	      0.99669249	    -53.41708593	      5.32010674	    -17.53578003	     -2.79844937	     -1.46066830	      8.31056255	      3.32016557	     -8.32321545	      3.79908423	    -12.06902659	      1.11027231	     -1.40059410	     -0.52948288	      0.90131566
      1.68800000	      1.93911657	      2.56766986	      2.20355104	      0.51065100	      1.00871425	      0.29973693	     22.50107579	     -3.14001066	      0.93737598	    -52.47601525	      5.38258985	    -17.54052048	     -2.94338937	     -1.96080596	      8.23041841	      3.47095697	     -8.10206852	      3.91771416	    -12.01937073	      1.07876638	     -1.56142028	     -0.46749912	      0.61348687
